<svg width="78" height="75" viewBox="0 0 78 75" fill="none" xmlns="http://www.w3.org/2000/svg">
<g filter="url(#filter0_i_5_87)">
<path d="M0.254883 18.4395C0.254883 8.4984 8.31376 0.439529 18.2549 0.439529H59.551C69.4922 0.439529 77.551 8.49841 77.551 18.4395V52.1852C77.551 56.6601 73.8893 60.2878 69.4143 60.2878V60.2878C66.6594 60.2878 64.0792 61.7041 62.6143 64.0373V64.0373C59.5548 68.9101 52.5079 69.062 49.2413 64.3257L48.9457 63.8971C47.387 61.6372 44.8172 60.2878 42.0719 60.2878H18.2549C8.31375 60.2878 0.254883 52.2289 0.254883 42.2878V18.4395Z" fill="#F4A329"/>
</g>
<path d="M31.1373 32.7867V12.6499H34.8873V32.7867C34.8873 34.6617 34.5032 36.2437 33.735 37.5328C32.9668 38.8218 31.9056 39.8049 30.5514 40.482C29.2102 41.146 27.6673 41.4781 25.9225 41.4781C24.1777 41.4781 22.6282 41.1786 21.274 40.5796C19.9199 39.9807 18.8587 39.0692 18.0905 37.8453C17.3222 36.6213 16.9381 35.0783 16.9381 33.2164H20.7076C20.7076 34.4143 20.929 35.3973 21.3717 36.1656C21.8144 36.9338 22.4264 37.5002 23.2076 37.8648C24.0019 38.2294 24.9069 38.4117 25.9225 38.4117C26.9121 38.4117 27.7975 38.2033 28.5787 37.7867C29.373 37.357 29.998 36.7255 30.4537 35.8921C30.9095 35.0458 31.1373 34.0106 31.1373 32.7867Z" fill="black"/>
<path d="M54.6857 34.8765V37.9429H39.295V34.8765H54.6857ZM39.881 22.6499V51.0874H36.1115V22.6499H39.881ZM57.9669 22.6499V51.0874H54.2169V22.6499H57.9669Z" fill="black"/>
<defs>
<filter id="filter0_i_5_87" x="0.254883" y="0.439529" width="87.2961" height="77.3473" filterUnits="userSpaceOnUse" color-interpolation-filters="sRGB">
<feFlood flood-opacity="0" result="BackgroundImageFix"/>
<feBlend mode="normal" in="SourceGraphic" in2="BackgroundImageFix" result="shape"/>
<feColorMatrix in="SourceAlpha" type="matrix" values="0 0 0 0 0 0 0 0 0 0 0 0 0 0 0 0 0 0 127 0" result="hardAlpha"/>
<feOffset dx="10" dy="20"/>
<feGaussianBlur stdDeviation="5"/>
<feComposite in2="hardAlpha" operator="arithmetic" k2="-1" k3="1"/>
<feColorMatrix type="matrix" values="0 0 0 0 0 0 0 0 0 0 0 0 0 0 0 0 0 0 0.3 0"/>
<feBlend mode="normal" in2="shape" result="effect1_innerShadow_5_87"/>
</filter>
</defs>
</svg>
